<svg xmlns="http://www.w3.org/2000/svg" width="1048.752" height="85.653" viewBox="0 0 983.20501 80.299997">
	<g transform="translate(171.7 -317.877)">
		<g transform="translate(-330 158.077)">
			<path d="M1137.4 169.1c-2.7-3.9-8.1-6.4-16-7.4-3.1-.4-10.1-.6-20.9-.6h-74.7v35.8c0 2.3-.1 5.1-.4 8.6-.2 3.5-.4 5.9-.8 7.3-.4 1.4-1 2.5-1.9 3.6-1.4 1.3-3.7 2.3-6.9 2.8-3.3.5-9.1.7-17.6.7-10.3 0-17.2-.5-20.6-1.4-3.4-.9-5.5-3-6.1-6-.5-2.2-.8-7.4-.9-15.6V161H948c.8 2.6 3.5 12.2 2.7 24.6-.3-6.7-5.4-22.4-20-24.6-6.5-.9-18.3-1.2-35.6-1.2-17.2 0-44.3 3.5-47.2 5.9.9 4.5 1.2 10.8.7 18.7 0-5.2-1.5-11.1-5.4-16-4.1-5-10.3-6.2-15-6.7-2.7-.2-7.8-.6-21.6-.6h-58.1c1.2 3 3.3 10.3 2.6 20.9-.3-6.2-3.8-12.9-8.9-16.2-5.2-3.5-12-4.7-17.9-5.1-5.8-.5-13.8-.8-23.9-.8-16.9 0-29.5.7-37.6 2.1-4.1.7-7.4 2.1-9.9 4.3.7 4.3 1.1 10.3 0 17.5-.3-5.6-2.1-10.8-3.3-13.8-.6.9-1.1 1.9-1.5 2.9-1.1 2.8-1.9 6.1-2.3 9.7-.4 3.6-.6 8.9-.6 16.1 0 10.5.2 17.5.7 21.1.4 3.8 1.3 6.9 2.5 9.1.4.8.9 1.5 1.5 2.1.7-1.2 3.1-5.8 3.5-12.7.7 7.4.2 12.5-.4 15.8l.7.6c3.3 2.1 7.8 3.6 13.5 4.3 5.7.7 15.4 1.1 29.1 1.1 10.8 0 18.8-.2 24.1-.5 12.8-.6 19.8-3.1 23.6-7 4.9-5 7.9-12.1 8.1-16 .6 12.3-3.4 20.3-4.4 22.3H772V219h34.4c5 0 8.3.1 9.9.4 1.6.3 2.8.8 3.7 1.7.9 1 1.5 2.4 1.9 4.2.2 1.8.4 5 .4 9.3v4.2h26.8c-1.2-3.5-2.3-8.9-1.9-16 .4 6.6 5.6 15.1 15.5 16.2 6.8.8 17.7.9 32.7.9 17 0 29 .2 35.3-1.3 18.1-4.2 19.7-21.7 19.8-26.1 1.3 6.9.4 13.3-.2 17 2.5 4 6.6 6.7 12.3 8.1 3.9.9 8.3 1.5 13.6 1.8 5.3.4 12.6.5 22.3.5 12.8 0 22-.3 27.6-.9 5.7-.6 9.5-1.8 12.6-3.6 6.1-3.6 11.1-12.6 11.2-21.7 1.8 9.8-.4 19.8-1.8 25.1h22.1v-19.2h30.5c9.5 0 16-.2 19.4-.6 4.9-.5 8.7-1.5 11.5-2.9 2.8-1.4 5-3.4 6.5-6 2.3-3.8 3.4-10.6 3.4-20.2.1-9.9-1.3-16.9-4.1-20.8m-389.6 25.7h-52.5v15.6h32v2.2c0 2.2-.2 3.9-.7 5-.5 1.1-1.3 1.9-2.4 2.4-1.5.6-3.3 1-5.7 1.1-2.4.1-9.1.2-20.2.3-11.3-.2-18-.4-20.1-.5-2.1-.2-3.9-.9-5.2-1.9-1.3-1.1-2.3-2.9-2.7-5.5-.4-2.6-.7-7.2-.7-13.8 0-5.9.3-10 .7-12.4.5-2.4 1.4-4.2 2.7-5.2 1.3-1.1 3.8-1.8 7.4-2.2 3.6-.4 9.6-.6 18-.6 7.8 0 13.7.2 17.8.4 4.3.2 7.1.8 8.5 1.8.7.5 1.2 1.2 1.5 1.9.2.8.4 2.3.4 4.5h21.3v6.9zm74.3.7c-.4 1.3-1.2 2.2-2.2 2.9-.8.5-1.8.8-2.9.9-1.2 0-4.7.2-10.6.2H772v-19.1h34.2c5.5 0 9 .1 10.1.1 1.2.1 2.2.3 3.1.7 1.2.5 2 1.5 2.5 2.8.5 1.3.8 3.2.8 5.7 0 2.6-.2 4.6-.6 5.8m24 20.1c-1.6-3.4-6.9-6.5-13.7-6.9 6.9-.6 13.4-4 14.8-7.3-1.4 5.1-4.7 6.2-6 7.1 3 1.9 4 3.7 4.9 7.1m78.8-3.3c-.5 2.1-1.5 3.6-2.9 4.7-1.5 1.2-3.9 1.9-7.2 2.3-3.2.3-9.7.5-19.5.5-10.5 0-17.5-.2-21.2-.7-4.8-.6-7.8-2.8-8.8-6.8-.5-2.2-.8-5.6-.8-10.4 0-7.9.5-13.2 1.4-15.8 1-2.6 2.9-4.3 5.9-5.1 2.6-.7 10.4-1 23.3-1 11.3 0 18.4.2 21.4.6 3 .4 5.1 1.5 6.4 3.1 1 1.3 1.7 3.3 2.1 5.9.4 2.7.6 6.7.6 12.4.1 4.8-.2 8.2-.7 10.3m191.6-16c-.4 1.3-1.3 2.3-2.5 2.9-1 .5-2.1.8-3.3.9-1.3.1-4.7.2-10.1.2h-30.4v-19.8h30.4c7.3.1 11.6.3 12.6.8 1.5.6 2.5 1.5 3.1 2.8.6 1.3.9 3.3.9 6 0 2.8-.3 4.9-.7 6.2"
			/>
			<path d="M630.5 212.4c0 3.7-.7 6.2-2.4 7.3-1.1.7-2.6 1.1-4.5 1.3-1.8.1-7.5.2-17.1.3-10.1 0-16.1-.1-18.1-.2-2.1-.1-3.7-.4-4.8-.9-1.8-.7-2.7-2.6-2.7-5.7 0-2.3.6-3.8 1.8-4.6 1.3-.7 3.8-1.2 7.6-1.2 2.9 0 9.1-.3 18.6-.7 9.7-.4 16-.7 19-.8 5.7-.2 10.2-.7 13.2-1.6 3.1-.9 5.5-2.3 7.2-4.2 3-3.3 4.4-8.7 4.4-16.5 0-8.6-1.7-14.6-5-18.1-2.6-2.8-6.5-4.6-11.8-5.3-5.3-.8-16.1-1.2-32.3-1.2-11.5 0-19.5.3-24.2.9-7.2.9-12.1 3-14.7 5.9-1.9 2.1-3.1 5.2-3.6 9.3-.1-.8-.3-1.5-.5-2.1-2-7.3-7.6-11.5-16.7-12.7-6.3-.8-17.9-1.2-34.7-1.2-16.9 0-28.4.4-34.7 1.2-9.1 1.2-14.7 5.4-16.7 12.7-1.4 4.9-2.1 13.2-2.1 24.8 0 4.5.1 8.6.2 12.2l-26.7-49.9h-36.9L359 223v-61.5h-25v27.3h-53.8v-27.3h-24.9v.1c.8 2.4 2.5 9.1 2 20.3-.2-3.5-2.3-13.4-10.3-18.1-2.6-1.5-6.3-2.4-10.9-2.8-4.6-.4-11.9-.7-21.9-.7-20.2 0-33.5.7-40.1 2.2-6.7 1.5-11 4.5-13.2 9.3-1 2.2-1.6 5.2-2 9.1-.4 3.9-.6 10.3-.6 19.1 0 9 .2 15.3.6 18.7.4 4.3 1.3 7.7 2.7 10.1 1.4 2.4 3.5 4.3 6.4 5.8 3.2 1.6 7.9 2.7 14.2 3.3 6.3.6 16.9.8 31.8.8 14.1 0 24.1-.6 29.8-2 6.5-1.3 10.4-5.6 11.5-7.1 1-1.5 4.2-7 4.5-13.2.7 14.3-4.5 21.2-4.5 21.2h24.9V210H334v27.7h44.1l6.7-12.9 8.4-16.6 15-28.9h4.8l15 28.9 8.3 16.6 6.7 12.9h21c-3.2-2.8-6.4-8.4-6.9-17.3 1.5 11.5 13.3 16.6 17.3 17.1 6.3.9 18 1.3 34.9 1.3 16.7 0 28.2-.5 34.5-1.3 8.1-1.1 13.4-4.6 15.9-10.4.3.9.7 1.9 1.2 2.6 1.4 2.6 3.5 4.5 6.1 5.8 2.6 1.3 6.4 2.1 11.2 2.6 5.1.4 14.7.7 28.7.7 11.7 0 20.4-.4 26-.9 5.6-.6 9.8-1.7 12.6-3.1 2.9-1.7 5-3.9 6.1-6.5 1.1-2.7 1.7-6.7 1.7-12.2v-3.5h-22.8zm-375.1-4.1h-21.2c-.1 4.7-.9 7.8-2.3 9.1-1.1 1-3.1 1.7-6.1 1.9-3 .3-9.1.5-18.2.5-7.4 0-12.5-.2-15.4-.6-2.9-.3-5-1.1-6.4-2-1.4-1.1-2.4-2.7-2.9-5.1-.5-2.3-.8-6.4-.8-12.2 0-5.8.3-10 .8-12.6.6-2.6 1.5-4.5 3-5.6 1.2-.9 3.1-1.5 6.1-1.9 2.8-.3 7.9-.5 15.4-.5 7.4 0 13.1.2 16.8.5 3.7.4 6 1 6.9 1.7.7.5 1.1 1.3 1.3 2.2.2.9.4 2.6.5 5.1h22.4v19.5zm282.8 3.4c-.4 2-1.4 3.5-2.8 4.5-1.5 1.2-3.8 1.9-7 2.2-3.2.3-9.5.5-19 .5-10.2 0-17-.2-20.6-.7-4.7-.5-7.6-2.7-8.6-6.5-.5-2.1-.7-5.5-.7-10.1 0-7.6.5-12.8 1.4-15.4.9-2.6 2.8-4.2 5.8-5 2.5-.7 10.1-1 22.6-1 11 0 18 .3 20.9.6 2.9.4 5 1.4 6.2 3 1 1.3 1.7 3.2 2.1 5.8.4 2.5.6 6.5.6 12-.2 4.7-.4 8-.9 10.1m37.8-20.2c-11.5 1.6-17.4 11.8-17.4 22.6-1.4-13 2.7-21.6 4-23.8-.1-1.7-.2-3.3-.3-4.8h21.6c.1-2.1.3-3.6.5-4.3.3-.8.9-1.5 1.7-2 1-.6 2.8-1 5.4-1.1 2.6-.1 8.1-.3 16.5-.3 10.1 0 16.3.3 18.5.9 2.2.6 3.3 2.3 3.3 5.2 0 2.6-1.1 4.3-3.3 4.9-1.8.5-10.3 1-25.2 1.4-12.6.3-21 .7-25.3 1.3"/>
		</g>
	</g>
</svg>