<svg xmlns="http://www.w3.org/2000/svg" width="100" height="100" viewBox="0 0 100 100">
	<path
		d="M2.94 11.956C.57 11.906-.106 14.542.216 16.46.252 33 .143 49.55.27 66.087c.54 2.7 3.636 2.2 5.668 2.198h36.376c-.688 3.893 1.164 11.048-4.319 11.818-2.684 1.079-6.544-.761-8.535 1.807-.606 1.71-.847 4.194.631 5.539 2.077 1.182 4.65.34 6.94.594 10.574-.036 21.158.073 31.726-.055 2.635-.568 2.505-3.962 1.85-5.963-1.745-2.645-5.512-.895-8.043-1.853-5.899-.15-4.463-7.388-4.898-11.37.524-1.131 3.11-.227 4.487-.517 11.815-.036 23.64.073 35.448-.055 2.684-.544 2.186-3.66 2.184-5.705-.036-16.122.073-32.254-.054-48.37-.54-2.701-3.636-2.2-5.669-2.198H2.941zm2.726 5.487h88.669v45.356H5.666V17.443zM47.79 68.775c1.328.31 3.912-.644 4.389.522-.167 4.397.183 10.414 2.93 13.26H44.612c3.588-3.417 2.946-9.251 3.177-13.782z"
	/>
</svg>
