<?xml version="1.0"?>
<svg width="240" height="112" xmlns="http://www.w3.org/2000/svg" xmlns:svg="http://www.w3.org/2000/svg">
    <g fill="#000">
        <title>Phoenix logo</title>
        <g id="svg_23">
            <g id="svg_24">
                <g id="svg_25">
                    <path id="svg_26" d="m117.749998,61.65c0,2 -0.7,3.8 -2.2,5.2c-1.4,1.4 -3.2,2.2 -5.2,2.2c-1.6,0 -2.6,-0.5 -3.1,-1.6l0,12l-4.3,1.4l0,-41.4l2.8,0l0.9,1.6c0.3,-0.5 0.8,-0.8 1.6,-1.2c0.8,-0.3 1.4,-0.5 2,-0.5c2,0 3.8,0.7 5.2,2.2c1.4,1.4 2.2,3.2 2.2,5.2l0,14.9l0.1,0zm-4.3,0l0,-14.8c0,-0.8 -0.3,-1.6 -0.9,-2.2c-0.6,-0.6 -1.3,-0.9 -2.2,-0.9c-0.9,0 -1.6,0.3 -2.2,0.9c-0.6,0.6 -0.9,1.3 -0.9,2.2l0,14.8c0,0.9 0.3,1.6 0.9,2.2c0.6,0.6 1.3,0.9 2.2,0.9c0.8,0 1.6,-0.3 2.2,-0.9c0.6,-0.6 0.9,-1.4 0.9,-2.2z"/>
                    <path id="svg_27" d="m136.049998,68.95l-4.3,0l0,-22.1c0,-0.8 -0.3,-1.6 -0.9,-2.2c-0.6,-0.6 -1.3,-0.9 -2.2,-0.9c-0.9,0 -1.6,0.3 -2.2,0.9c-0.6,0.6 -0.9,1.3 -0.9,2.2l0,22.2l-4.3,0l0,-36.5l4.3,-1.4l0,9.5c0.9,-0.8 2,-1.2 3.1,-1.2c2,0 3.8,0.7 5.2,2.2c1.4,1.4 2.2,3.2 2.2,5.2l0,22.1z"/>
                    <path id="svg_28" d="m154.449998,61.65c0,2 -0.7,3.8 -2.2,5.2c-1.4,1.4 -3.2,2.2 -5.2,2.2c-2,0 -3.8,-0.7 -5.2,-2.2c-1.4,-1.4 -2.2,-3.2 -2.2,-5.2l0,-14.8c0,-2 0.7,-3.8 2.2,-5.2c1.4,-1.4 3.2,-2.2 5.2,-2.2c2,0 3.8,0.7 5.2,2.2c1.4,1.4 2.2,3.2 2.2,5.2l0,14.8zm-4.3,0l0,-14.8c0,-0.8 -0.3,-1.6 -0.9,-2.2c-0.6,-0.6 -1.3,-0.9 -2.2,-0.9c-0.9,0 -1.6,0.3 -2.2,0.9c-0.6,0.6 -0.9,1.3 -0.9,2.2l0,14.8c0,0.9 0.3,1.6 0.9,2.2c0.6,0.6 1.3,0.9 2.2,0.9c0.8,0 1.6,-0.3 2.2,-0.9c0.6,-0.6 0.9,-1.4 0.9,-2.2z"/>
                    <path id="svg_29" d="m172.749998,61.65c0,2 -0.7,3.8 -2.2,5.2c-1.4,1.4 -3.2,2.2 -5.2,2.2c-2,0 -3.8,-0.7 -5.2,-2.2c-1.4,-1.4 -2.2,-3.2 -2.2,-5.2l0,-14.8c0,-2 0.7,-3.8 2.2,-5.2c1.4,-1.4 3.2,-2.2 5.2,-2.2c2,0 3.8,0.7 5.2,2.2c1.4,1.4 2.2,3.2 2.2,5.2c0,2.4 -0.3,4.3 -1,5.5c-0.7,1.2 -1.8,2.4 -3.5,3.6c-2,1.3 -4.1,2.6 -6.1,3.9l0,1.8c0,0.9 0.3,1.6 0.9,2.2c0.6,0.6 1.3,0.9 2.2,0.9c0.8,0 1.6,-0.3 2.2,-0.9c0.6,-0.6 0.9,-1.3 0.9,-2.2l0,-0.5l4.3,-1.4l0,1.9l0.1,0zm-4.2,-14.8c0,-0.8 -0.3,-1.6 -0.9,-2.2c-0.6,-0.6 -1.3,-0.9 -2.2,-0.9c-0.9,0 -1.6,0.3 -2.2,0.9c-0.6,0.6 -0.9,1.3 -0.9,2.2l0,8.1c2.5,-1.4 4.2,-2.6 4.9,-3.4c0.8,-1.1 1.3,-2.6 1.3,-4.7z"/>
                    <path id="svg_30" d="m191.149998,68.95l-4.3,0l0,-22.1c0,-0.8 -0.3,-1.6 -0.9,-2.2c-0.6,-0.6 -1.3,-0.9 -2.2,-0.9c-0.9,0 -1.6,0.3 -2.2,0.9c-0.6,0.6 -0.9,1.3 -0.9,2.2l0,22.2l-4.3,0l0,-29.6l2.8,0l0.9,1.6c0.8,-1.1 2,-1.6 3.6,-1.6c2,0 3.8,0.7 5.2,2.2c1.4,1.4 2.2,3.2 2.2,5.2l0,22.1l0.1,0z"/>
                    <path id="svg_31" d="m199.049998,33.75c0,0.7 -0.2,1.4 -0.6,1.9c-0.4,0.5 -0.9,0.8 -1.5,0.8c-0.6,0 -1.2,-0.3 -1.6,-0.8c-0.4,-0.5 -0.6,-1.2 -0.6,-1.9c0,-0.7 0.2,-1.3 0.6,-1.8c0.4,-0.5 1,-0.8 1.6,-0.8c0.6,0 1.1,0.3 1.5,0.8c0.4,0.5 0.6,1.1 0.6,1.8zm0,35.2l-4.2,0l0,-27.4l4.3,-1.4l0,28.8l-0.1,0z"/>
                    <path id="svg_32" d="m219.149998,68.95l-4.8,0l-3.5,-8.8l-3.5,8.8l-4.8,0l5.8,-14.8l-5.9,-14.7l4.9,0l3.4,8.7l3.4,-8.7l4.8,0l-5.8,14.7l6,14.8z"/>
                </g>
            </g>
            <g id="svg_33">
                <path id="svg_34" d="m60.549998,75.45c0.9,-6.1 -0.2,-10.9 -1.5,-21.7c0,0 0.8,10.4 -2.3,17c-1.2,2.6 -2,4.8 -2.3,6.7c-0.3,-5.1 2.4,-9.6 3.4,-16.4c1.4,-9.1 -2.7,-15.5 -3.6,-19.1c-0.9,-3.6 3.8,-10.4 3.8,-10.4s-4,4.2 -5.3,8.2c-1.3,3.9 0.6,5.4 2,13.5c1.2,7.1 -3,10.9 -3.5,18.4c-0.7,8.8 4.6,11.4 4.6,11.4s3.9,-2.1 4.7,-7.6z"/>
                <g id="svg_35">
                    <path id="svg_36" d="m37.149998,49.25c-0.4,-0.6 -0.3,-1.5 -0.2,-2.2c1.2,2.1 3.1,3.7 4.9,4.7c3.7,2 4.6,3.2 4.6,3.2c-0.2,-6.2 -8.2,-8.1 -6.6,-16.9c1.6,-8.9 11.5,-9.6 11.5,-9.6s-10.3,-0.1 -14,6.8c-1.5,2.8 -2,5.3 -1.8,7.4c-1.9,-4.3 -0.2,-7.7 -0.2,-7.7c-4.7,8.5 1.8,14.3 1.8,14.3z"/>
                    <path id="svg_37" d="m41.449998,60.25c0,0 6.8,2.6 8.3,7.9c-0.2,-2.5 0,-2.2 0,-2.9c0.3,-6.9 -3.6,-10.1 -5.9,-11.3c-9.6,-3.5 -11.7,-7.2 -11.3,-11.8c-0.1,-0.1 -8,12.4 8.9,18.1z"/>
                    <path id="svg_38" d="m37.649998,59.45c0,0 -8.4,-2.9 -8.4,-10.6c0,-7.4 -8.4,-11.1 -8.4,-11.1s3.9,2.7 4.5,10.8c0.7,8.5 6.6,11.7 12.3,10.9z"/>
                    <path id="svg_39" d="m71.949998,37.95c1.6,8.9 -6.4,10.7 -6.6,16.9c0,0 0.9,-1.2 4.6,-3.2c4.3,-2.3 9,-8.2 4.5,-16.5c-3.7,-6.9 -14,-6.8 -14,-6.8s9.9,0.8 11.5,9.6z"/>
                    <path id="svg_40" d="m49.749998,48.15c0.5,2 0.6,5.4 0.6,5.4s1.5,-1.6 1.2,-5c-0.2,-1.7 -1.2,-2.7 0,-6.4c-0.1,-0.1 -2.7,2.8 -1.8,6z"/>
                    <path id="svg_41" d="m68.149998,53.85c-2.4,1.2 -6.2,4.4 -5.9,11.3c0,0.7 0.2,0.4 0,2.9c1.5,-5.2 8.3,-7.9 8.3,-7.9c16.8,-5.6 9,-18.2 9,-18.2c0.3,4.7 -1.8,8.3 -11.4,11.9z"/>
                    <path id="svg_42" d="m72.749998,71.95c-3.5,0.4 -5.7,0.1 -7.5,0c1.6,-0.7 3,-0.6 3,-0.6c21.6,-1.3 18.8,-17.6 18.8,-17.6c-2.4,12.1 -14.2,7.4 -19.7,9.4c-2.5,0.9 -4.1,3.9 -5.2,7.1c0.1,1.4 0.1,2.9 0,4.4c-0.1,1.4 -0.5,2.8 -1,4.1c2,-0.3 16.5,-2.8 22.4,-12.3c-0.1,0 -3.4,4.7 -10.8,5.5zm-10.3,0.3c1.2,-2.3 3,-3.7 5,-4.2c1.7,-0.4 3.7,-1.7 3.7,-1.7c-0.8,1.5 -3.3,2.8 -3.3,2.8c5.5,0.5 10.4,-3.1 10.4,-3.1c-3.1,2.5 -5,3.2 -10.5,4.6c-1.3,0.3 -2.4,0.9 -3.2,1.5c-0.8,-0.1 -1.4,-0.1 -2.1,0.1zm-12.7,-2c-1.1,-3.2 -2.7,-6.2 -5.2,-7.1c-5.5,-2 -17.3,2.7 -19.7,-9.4c0,0 -2.8,16.3 18.8,17.6c0,0 1.4,-0.1 3,0.6c-1.7,0.1 -4,0.3 -7.5,0c-7.5,-0.8 -10.7,-5.5 -10.7,-5.5c5.8,9.5 20.4,12 22.4,12.3c-0.5,-1.3 -0.9,-2.7 -1,-4.1c-0.2,-1.4 -0.1,-3 -0.1,-4.4zm-2.5,1.8c-0.8,-0.7 -1.9,-1.2 -3.2,-1.5c-5.6,-1.3 -7.4,-2 -10.5,-4.6c0,0 5,3.6 10.4,3.1c0,0 -2.5,-1.2 -3.3,-2.8c0,0 1.9,1.3 3.7,1.7c2,0.5 3.8,1.9 5,4.2c-0.6,-0.1 -1.3,-0.1 -2.1,-0.1z"/>
                    <path id="svg_43" d="m82.549998,48.95c0,7.7 -8.4,10.6 -8.4,10.6c5.8,0.7 11.7,-2.4 12.3,-10.9c0.6,-8.2 4.5,-10.8 4.5,-10.8s-8.3,3.6 -8.4,11.1z"/>
                    <path id="svg_44" d="m61.049998,78.85c-0.8,2 -2.1,3.8 -3.9,4.9c5,-0.4 12.7,-1.8 17.9,-6.8c0,-0.1 -7.5,2.8 -14,1.9z"/>
                    <path id="svg_45" d="m50.849998,78.85c-6.5,1 -14,-1.9 -14,-1.9c5.2,5 12.9,6.4 17.9,6.8c-1.8,-1.2 -3.1,-2.9 -3.9,-4.9z"/>
                </g>
                <path id="svg_46" d="m69.149998,45.95"/>
                <path id="svg_47" d="m42.049998,43.15l0.1,-0.4c1,-8.6 8.4,-11.7 8.4,-11.7c-11.5,0.5 -8.5,12.1 -8.5,12.1z"/>
                <path id="svg_48" d="m70.149998,42.55l0.1,0.4c0,0 2.8,-10.8 -8.3,-11.3c0,0 6.5,2.2 8.2,10.9z"/>
            </g>
        </g>
    </g>
</svg>
