<svg xmlns="http://www.w3.org/2000/svg" width="100" height="100" viewBox="0 0 100 100">
	<path d="M50 .023c-15.8 0-28.66 12.863-28.66 28.662 0 11.412 6.712 21.287 16.393 25.894C17.726 59.986 2.97 78.278 2.97 99.977h5.036c0-23.222 18.77-41.993 41.992-41.993 23.222 0 41.993 18.771 41.993 41.993h5.037c0-21.7-14.755-39.991-34.762-45.398 9.682-4.607 16.394-14.482 16.394-25.894 0-15.8-12.862-28.662-28.662-28.662zm0 5.037c13.077 0 23.624 10.547 23.624 23.625 0 13.077-10.547 23.624-23.625 23.624-13.077 0-23.624-10.547-23.624-23.624 0-13.078 10.547-23.625 23.624-23.625z" />
</svg>
