<svg xmlns="http://www.w3.org/2000/svg" viewBox="0 0 782.90002 400">
	<g transform="translate(417.164 -749.505)">
		<g id="vray-logo" transform="translate(-417.164 749.505)">
			<path d="M303.4 149l-.9-2.9c-.4-.9-1-3.7 2.7-3.7h12.9c2.1 0 2.5 1.9 2.9 2.9l21.5 61.8s1.7 5.5 3 5.5c1.5 0 3.2-5.5 3.2-5.5l21-61.8c.4-1 .8-2.9 3.7-2.9h12.1c3.4 0 3.2 1.9 2.9 2.9l-1.2 3.2-36.8 106.4c-.7 3.5-9.6 3.3-10.2 0L303.4 149z"/>
			<path d="M605.1 258l-38-112.8c-.4-1-.5-2.8 2.9-2.9h14.1c1 0 2.2.5 2.9 2.9 0 0 24.3 73.6 25.2 76 .9 2.6 1.8 5.4 2.9 5.5 1 .1 2-2 2.8-4.3 1.1-3 29.7-76.9 29.7-76.9.4-.9.7-1.7 1-2.2.3-.5.9-.7 1.9-.7h14.4c3.6 0 3.3 1.9 2.9 2.9l-51.1 131.6-12.8 30.8c-.4 1-.8 1.6-1.1 2-.2.6-.8.9-1.7.9h-12.9c-.9 0-1.8-.3-2.6-.9-.6-.4-.7-1.1-.3-2l19.8-49.9z"/>
			<path d="M382 208.9c0-2.7.9-5 2.7-7 2-2 4.4-3 7.3-3 2.7 0 5 1 7 3s3 4.3 3 7c0 2.8-1 5.3-3 7.3-2 1.8-4.3 2.7-7 2.7-2.9 0-5.2-.9-7.1-2.9-1.9-1.8-2.9-4.2-2.9-7.1"/>
			<path d="M449.9 161.5c-2.4 1-4.4 2.5-6.3 4-.6.4-1.1.9-1.7 1.4l-1.4 1.4c-1.7 2.1-3.1 4.4-4 6.9-1.3 3-2 6.4-2 10V254c0 1.9-.9 2.9-2.8 2.9h-11.5c-1.9 0-2.9-1-2.9-2.9v-68.7c0-2.7.2-5.4.6-8 .6-3.1 1.6-5.9 2.9-8.6 2.3-5.3 5.3-10 9.1-13.8 3.8-3.8 8.3-6.9 13.5-9.2 2.9-1.2 5.7-2 8.6-2.6 1.7-.4 3.4-.7 5.2-.9h3.1c23.2-.5 34 14 37.1 16.6 1.3 1.3 1.6 3.7-.7 4.7l-10.3 2.7c-2.8 1.1-4.8.7-6.8-1.3-.8-.6-13.9-9.9-29.7-3.4"/>
			<path d="M546.8 239.7h-30.4c-4.8-.2-17.2-3-17.2-17.2 0-5 2.1-9.9 5-12.5 5.8-5 12.2-4.7 12.2-4.7h27.5c1.5 0 2.5.8 2.9 2.3v32.1zm13.7-71.2c-2.3-5.3-5.3-9.8-9.2-13.6-3.8-3.8-17.7-15.1-46.4-10.6-2.8 1.1-2.4 2.8.4 5.5 1.2 1.1 5.9 6.4 7.5 7.7 3.2 2.6 5 2.3 6.3 2.2 25.5-1.4 27.7 21.9 27.7 25.5v.9c-.4 1.3-1.3 2-2.9 2h-27.5c-4.6 0-9 .9-13.2 2.7-4.2 1.8-7.9 4.2-11 7.3-3.2 3.1-5.7 6.7-7.5 10.9-1.8 4.2-2.7 8.7-2.7 13.5 0 4.6.9 9 2.7 13.2 1.8 4.2 4.3 7.9 7.5 11 3.1 3.2 6.8 5.6 11 7.4 4.2 1.8 8.6 2.7 13.2 2.7H561.1c1.9 0 2.9-1 2.9-2.9v-68.7c-.1-5.8-1.2-11.4-3.5-16.7"/>
			<path d="M201.8 140.7c12 0 21.8-3 21.9-6.7.1-3.7-9.6-6.7-21.6-6.7-12 0-21.8 3-21.9 6.7-.1 3.6 9.6 6.7 21.6 6.7M200 271.6c-41.9 0-75.9-34-75.9-75.9 0-24.5 11.7-46.2 29.7-60.1-30.3 34.3 3.6 108.1 23.1 110.1 24.4 1.5 33.6-75.5 62.2-85.4 21.5-8.1 37.7 24.1 27.9 60.4-9.8 30.8-35.3 50.4-67 50.9M165 133c5.8-6.5 15.5-11.5 28.6-12.8 2.1-.2 4.3-.3 6.4-.3 21.4 0 40.8 8.9 54.6 23.2-1.9-.6-4.6-1.5-9.8-1.5-42 0-56.3 83-68.9 82.7-8.3.3-36.8-62.2-10.9-91.3m35-18.6c-47.1 0-85.2 38.1-85.2 85.2s38.1 85.2 85.2 85.2c47 0 85.2-38.1 85.2-85.2s-38.1-85.2-85.2-85.2"/>
		</g>
	</g>
</svg>
